<svg width="40" height="40" viewBox="0 0 40 40" fill="none" xmlns="http://www.w3.org/2000/svg">
<rect width="40" height="40" rx="20" fill="#8E6CEF"/>
<path d="M16.9999 17.1134V16.4667C16.9999 14.9667 18.2066 13.4934 19.7066 13.3534C20.1233 13.3124 20.5441 13.3592 20.9417 13.4907C21.3393 13.6221 21.705 13.8354 22.0152 14.1167C22.3254 14.3981 22.5733 14.7412 22.7429 15.1241C22.9125 15.5071 23 15.9212 22.9999 16.34V17.26M14.5399 23.04L14.6932 24.2867C14.8399 25.5934 15.3199 26.6667 17.9999 26.6667H21.9999C24.6799 26.6667 25.1599 25.5934 25.2999 24.2867L25.7999 20.2867C25.9799 18.66 25.5132 17.3334 22.6666 17.3334H17.3332C14.4866 17.3334 14.0199 18.66 14.1999 20.2867" stroke="white" stroke-width="1.5" stroke-miterlimit="10" stroke-linecap="round" stroke-linejoin="round"/>
<path d="M22.33 20H22.336M17.6633 20H17.6687" stroke="white" stroke-width="2" stroke-linecap="round" stroke-linejoin="round"/>
</svg>
