<svg width="41" height="40" viewBox="0 0 41 40" fill="none" xmlns="http://www.w3.org/2000/svg">
<path d="M20.6667 14.441V17.771M29.2567 23.17C29.9867 24.39 29.4067 25.97 28.0567 26.42C23.2754 28.01 18.108 28.01 13.3267 26.42C11.8867 25.94 11.3367 24.48 12.1267 23.17L13.3967 21.05C13.7467 20.47 14.0267 19.44 14.0267 18.77V16.67C14.0254 15.7946 14.1967 14.9274 14.5308 14.1183C14.8649 13.3091 15.3552 12.5737 15.9738 11.9542C16.5924 11.3347 17.327 10.8432 18.1357 10.5079C18.9444 10.1726 19.8112 10 20.6867 10C24.3467 10 27.3467 13 27.3467 16.66V18.76C27.3467 18.94 27.3667 19.14 27.3967 19.35" stroke="#272727" stroke-opacity="0.5" stroke-width="1.5" stroke-miterlimit="10" stroke-linecap="round"/>
<path d="M23.9967 26.82C23.9967 28.65 22.4967 30.15 20.6667 30.15C19.7567 30.15 18.9167 29.77 18.3167 29.17C17.7167 28.57 17.3367 27.73 17.3367 26.82" stroke="#272727" stroke-opacity="0.5" stroke-width="1.5" stroke-miterlimit="10"/>
</svg>
