<svg width="41" height="40" viewBox="0 0 41 40" fill="none" xmlns="http://www.w3.org/2000/svg">
<path d="M28.8333 15.04C28.8333 11.01 27.8933 10 24.1133 10H16.5533C12.7733 10 11.8333 11.01 11.8333 15.04V26.3C11.8333 28.96 13.2933 29.59 15.0633 27.69L15.0733 27.68C15.8933 26.81 17.1433 26.88 17.8533 27.83L18.8633 29.18C19.6733 30.25 20.9833 30.25 21.7933 29.18L22.8033 27.83C23.5233 26.87 24.7733 26.8 25.5933 27.68C27.3733 29.58 28.8233 28.95 28.8233 26.29V19M16.3333 15H24.3333M17.3333 19H23.3333" stroke="#272727" stroke-opacity="0.5" stroke-width="1.5" stroke-linecap="round" stroke-linejoin="round"/>
</svg>
